<?xml version="1.0" encoding="utf-8"?>
<!-- Generator: Adobe Illustrator 25.2.2, SVG Export Plug-In . SVG Version: 6.00 Build 0)  -->
<svg version="1.1" id="Layer_1" xmlns="http://www.w3.org/2000/svg" xmlns:xlink="http://www.w3.org/1999/xlink" x="0px" y="0px"
	 viewBox="0 0 3000 3000" style="enable-background:new 0 0 3000 3000;" xml:space="preserve">
<g>
	<path d="M1645.7,2126.4H1599V493.6l46.6-11.1V2126.4z M1728,1490.2l587,636.2h-73.2L1659,1494.7L2256,894l0.9,75.7L1728,1490.2z"/>
</g>
<g>
	<path d="M830,2677.5c-75.7-42.7-147.7-93.1-214-149.8c-65.6-56.1-126.2-118.9-180.1-186.6s-101.4-140.8-141.3-217.4
		c-40.3-77.3-73.2-158.8-97.8-242.2c-51.2-173.5-66.6-353.4-46-534.6c20.6-181.3,76.2-353.1,165-510.6
		c42.7-75.7,93.1-147.7,149.8-214c56.1-65.6,118.9-126.2,186.6-180.1S793.1,340.9,869.6,301c77.3-40.3,158.8-73.2,242.2-97.8
		c132.1-38.9,267.8-57.2,405.1-54.5l6.8-59.9c-145.3-3.4-289.1,15.7-428.9,56.9c-87.1,25.7-172.2,60.1-252.9,102.2
		c-80,41.7-156.3,91.4-227,147.6c-70.7,56.2-136.2,119.5-194.9,188c-59.2,69.2-111.8,144.4-156.4,223.5
		c-92.8,164.6-150.8,344-172.4,533.3c-21.6,189.3-5.4,377.2,48,558.4c25.7,87.1,60.1,172.2,102.2,252.9
		c41.7,80,91.4,156.3,147.6,227c56.2,70.7,119.5,136.2,188,194.9c69.2,59.2,144.4,111.8,223.5,156.4
		c126.9,71.6,269.5,122.5,411.9,151.9l0-59.9C1078.1,2793.5,949.9,2745.2,830,2677.5z"/>
	<path d="M2854.3,1101.3c-25.7-87.1-60.1-172.2-102.2-252.9c-41.7-80-91.4-156.3-147.6-227c-56.2-70.7-119.5-136.2-188-194.9
		c-69.2-59.2-144.4-111.8-223.5-156.4c-126.9-71.6-262.7-122.5-405.1-151.9l0,59.9c134.3,28.3,255.7,76.6,375.6,144.2
		c75.7,42.7,147.7,93.1,214,149.8c65.6,56.1,126.2,118.9,180.1,186.6s101.4,140.8,141.3,217.4c40.3,77.3,73.2,158.8,97.8,242.2
		c51.2,173.5,66.6,353.4,46,534.6c-20.6,181.3-76.2,353.1-165,510.6c-42.7,75.7-93.1,147.7-149.8,214
		c-56.1,65.6-118.9,126.2-186.6,180.1c-67.7,53.8-140.8,101.4-217.4,141.3c-77.3,40.3-158.8,73.2-242.2,97.8
		c-132.1,38.9-267.8,57.2-405.1,54.5l-0.3,60c145.3,3.4,282.5-15.8,422.3-57c87.1-25.7,172.2-60.1,252.9-102.2
		c80-41.7,156.3-91.4,227-147.6c70.7-56.2,136.2-119.5,194.9-188c59.2-69.2,111.8-144.4,156.4-223.5
		c92.8-164.6,150.8-344,172.4-533.3C2923.9,1470.4,2907.7,1282.6,2854.3,1101.3z"/>
	<path d="M1523.4,148.7l0.3-60c-145.3-3.4-282.6,15.8-422.4,57"/>
	<path d="M1476.6,2851.3l-0.3,60c145.3,3.4,282.5-15.8,422.3-57"/>
	<path d="M1523.7,2897.6V102.4c-7.9-0.1-15.8-0.2-23.7-0.2s-15.8,0.1-23.7,0.2v2795.2c7.9,0.1,15.8,0.2,23.7,0.2
		S1515.8,2897.7,1523.7,2897.6z"/>
</g>
<g>
	<path d="M1407.2,1556.3v570.1h-46.7V1564c0-138.3-49.4-207.5-137.3-207.5c-92,0-164.7,75.3-223.7,182.9v587h-46.7V1564
		c0-138.3-48-207.5-135.9-207.5c-92,0-166.1,75.3-223.7,182.9v587h-46.7v-789.6l39.8-9.5l5.5,147.5
		c56.3-96.8,137.3-164.4,227.8-164.4c94.7,0,155.1,64.5,174.3,170.6c57.6-99.9,138.6-170.6,233.3-170.6
		C1341.3,1310.4,1407.2,1404.2,1407.2,1556.3z"/>
</g>
</svg>
