<?xml version="1.0" encoding="utf-8"?>
<!-- Generator: Adobe Illustrator 25.1.0, SVG Export Plug-In . SVG Version: 6.00 Build 0)  -->
<svg version="1.1" id="Layer_1" xmlns="http://www.w3.org/2000/svg" xmlns:xlink="http://www.w3.org/1999/xlink" x="0px" y="0px"
	 viewBox="0 0 3000 3000" style="enable-background:new 0 0 3000 3000;" xml:space="preserve">
<style type="text/css">
	.st0{fill:#FFFFFF;}
	.st1{enable-background:new    ;}
</style>
<g>
	<path class="st0" d="M1645.7,2126.4H1599V493.6l46.6-11.1L1645.7,2126.4L1645.7,2126.4z M1728,1490.2l587,636.2h-73.2L1659,1494.7
		L2256,894l0.9,75.7L1728,1490.2z"/>
</g>
<g class="st1">
	<path class="st0" d="M648.8,2312.5h-6.1l-6.7-61.2c-2.2-20.2-4.7-43.9-5.6-55.8l-34.2,102.1h-5.9l-34.9-102.1
		c-0.7,10.6-3.4,34.9-5.4,54.4l-6.1,62.6h-6.1l12.6-122.8h9.4l33.7,100.1l32.9-100.1h9.5L648.8,2312.5z"/>
	<path class="st0" d="M861.2,2251.3c0,40-18.7,63-48.8,63c-29,0-48.8-22.3-48.8-62.8c0-40.7,20-63.7,48.8-63.7
		C841.6,2187.8,861.2,2209.7,861.2,2251.3z M770.2,2251.5c0,37.6,17.5,57.1,42.3,57.1c26.3,0,42.3-19.4,42.3-57.2
		c0-38.7-16.9-57.6-42.3-57.6C787.4,2193.7,770.2,2213,770.2,2251.5z"/>
	<path class="st0" d="M1063,2312.5h-7.9l-63.9-115.7c0.5,7.2,0.9,16.7,0.9,38.3v77.4H986v-122.8h7.9l63.7,115.7
		c-0.4-7-0.7-19.3-0.7-35.6v-80.1h6.1V2312.5z"/>
	<path class="st0" d="M1257.8,2195.7h-37.3v116.8h-6.3v-116.8H1177v-5.9h81.9L1257.8,2195.7z"/>
	<path class="st0" d="M1378.4,2312.5h-6.3v-122.8h6.3V2312.5z"/>
</g>
<g class="st1">
	<path class="st0" d="M1626.7,2312.5h-6.3v-122.8h6.3V2312.5z M1635.2,2246.5l57.1,66.1h-7.7l-57.2-66.1l54.5-56.7h7.6
		L1635.2,2246.5z"/>
	<path class="st0" d="M1794.5,2255.3h-28.6v57.2h-6.3v-122.8h27.9c28.8,0,41.6,11.5,41.6,32.4c0,19.1-11,28.3-27.9,32l34.2,58.3
		h-7.6L1794.5,2255.3z M1788.7,2249.5c21.2,0,33.7-8.5,33.7-27.4c0-17.3-9.5-26.8-35.5-26.8h-21.1v54.2H1788.7z"/>
	<path class="st0" d="M1968.2,2195.5H1916v49.7h45.2v5.6H1916v56h54.2v5.8h-60.5v-122.8h59.4L1968.2,2195.5z"/>
	<path class="st0" d="M2101.2,2277.1H2046l-11.9,35.5h-6.3l42.1-122.8h7.7l42.1,122.8h-6.7L2101.2,2277.1z M2099.2,2271.3
		l-25.6-76.5l-25.7,76.5H2099.2z"/>
	<path class="st0" d="M2244.5,2195.7h-37.3v116.8h-6.3v-116.8h-37.3v-5.9h81.9L2244.5,2195.7z"/>
	<path class="st0" d="M2321,2312.5h-6.3v-122.8h6.3V2312.5z"/>
	<path class="st0" d="M2440.7,2312.5h-7.7l-40.3-122.8h6.7l37.6,116.6l37.4-116.6h6.7L2440.7,2312.5z"/>
</g>
<g>
	<path class="st0" d="M830,2677.5c-75.7-42.7-147.7-93.1-214-149.8c-65.6-56.1-126.2-118.9-180.1-186.6s-101.4-140.8-141.3-217.4
		c-40.3-77.3-73.2-158.8-97.8-242.2c-51.2-173.5-66.6-353.4-46-534.6c20.6-181.3,76.2-353.1,165-510.6
		c42.7-75.7,93.1-147.7,149.8-214c56.1-65.6,118.9-126.2,186.6-180.1S793.1,340.9,869.6,301c77.3-40.3,158.8-73.2,242.2-97.8
		c132.1-38.9,267.8-57.2,405.1-54.5l6.8-59.9c-145.3-3.4-289.1,15.7-428.9,56.9c-87.1,25.7-172.2,60.1-252.9,102.2
		c-80,41.7-156.3,91.4-227,147.6S478.7,515,420,583.5C360.8,652.7,308.2,727.9,263.6,807c-92.8,164.6-150.8,344-172.4,533.3
		s-5.4,377.2,48,558.4c25.7,87.1,60.1,172.2,102.2,252.9c41.7,80,91.4,156.3,147.6,227s119.5,136.2,188,194.9
		c69.2,59.2,144.4,111.8,223.5,156.4c126.9,71.6,269.5,122.5,411.9,151.9v-59.9C1078.1,2793.5,949.9,2745.2,830,2677.5z"/>
	<path class="st0" d="M2854.3,1101.3c-25.7-87.1-60.1-172.2-102.2-252.9c-41.7-80-91.4-156.3-147.6-227
		c-56.2-70.7-119.5-136.2-188-194.9c-69.2-59.2-144.4-111.8-223.5-156.4c-126.9-71.6-262.7-122.5-405.1-151.9v59.9
		c134.3,28.3,255.7,76.6,375.6,144.2c75.7,42.7,147.7,93.1,214,149.8c65.6,56.1,126.2,118.9,180.1,186.6s101.4,140.8,141.3,217.4
		c40.3,77.3,73.2,158.8,97.8,242.2c51.2,173.5,66.6,353.4,46,534.6c-20.6,181.3-76.2,353.1-165,510.6
		c-42.7,75.7-93.1,147.7-149.8,214c-56.1,65.6-118.9,126.2-186.6,180.1c-67.7,53.8-140.8,101.4-217.4,141.3
		c-77.3,40.3-158.8,73.2-242.2,97.8c-132.1,38.9-267.8,57.2-405.1,54.5l-0.3,60c145.3,3.4,282.5-15.8,422.3-57
		c87.1-25.7,172.2-60.1,252.9-102.2c80-41.7,156.3-91.4,227-147.6c70.7-56.2,136.2-119.5,194.9-188
		c59.2-69.2,111.8-144.4,156.4-223.5c92.8-164.6,150.8-344,172.4-533.3C2923.9,1470.4,2907.7,1282.6,2854.3,1101.3z"/>
	<path class="st0" d="M1523.4,148.7l0.3-60c-145.3-3.4-282.6,15.8-422.4,57"/>
	<path class="st0" d="M1476.6,2851.3l-0.3,60c145.3,3.4,282.5-15.8,422.3-57"/>
	<path class="st0" d="M1523.7,2897.6V102.4c-7.9-0.1-15.8-0.2-23.7-0.2s-15.8,0.1-23.7,0.2v2795.2c7.9,0.1,15.8,0.2,23.7,0.2
		S1515.8,2897.7,1523.7,2897.6z"/>
</g>
<g>
	<path class="st0" d="M1407.2,1556.3v570.1h-46.7V1564c0-138.3-49.4-207.5-137.3-207.5c-92,0-164.7,75.3-223.7,182.9v587h-46.7V1564
		c0-138.3-48-207.5-135.9-207.5c-92,0-166.1,75.3-223.7,182.9v587h-46.7v-789.6l39.8-9.5l5.5,147.5
		c56.3-96.8,137.3-164.4,227.8-164.4c94.7,0,155.1,64.5,174.3,170.6c57.6-99.9,138.6-170.6,233.3-170.6
		C1341.3,1310.4,1407.2,1404.2,1407.2,1556.3z"/>
</g>
</svg>
