<?xml version="1.0" encoding="utf-8"?>
<!-- Generator: Adobe Illustrator 25.2.1, SVG Export Plug-In . SVG Version: 6.00 Build 0)  -->
<svg version="1.1" id="Layer_1" xmlns="http://www.w3.org/2000/svg" xmlns:xlink="http://www.w3.org/1999/xlink" x="0px" y="0px"
	 viewBox="0 0 1268.7 113.6" style="enable-background:new 0 0 1268.7 113.6;" xml:space="preserve">
<style type="text/css">
	.st0{fill:#FFFFFF;}
</style>
<path class="st0" d="M418,70.2C521.5,29.2,644.1,0,791.8,0c201.2,0,341.7,36.4,476.9,89.9l0,0c-145.5-48.6-264.4-64.7-444-64.7
	c-142.4,0-282.5,13.6-406,45L418,70.2z"/>
<path class="st0" d="M850.6,43.3c-103.5,41.1-226.1,70.2-373.8,70.2C275.6,113.6,135.1,77.1,0,23.7l0,0
	c145.5,48.6,264.4,64.7,444,64.7c142.4,0,282.5-13.6,406-45L850.6,43.3z"/>
</svg>
